<?xml version="1.0" standalone="no"?>
<!DOCTYPE svg PUBLIC "-//W3C//DTD SVG 20010904//EN"
 "http://www.w3.org/TR/2001/REC-SVG-20010904/DTD/svg10.dtd">
<svg version="1.0" xmlns="http://www.w3.org/2000/svg"
 width="512.000000pt" height="512.000000pt" viewBox="0 0 512.000000 512.000000"
 preserveAspectRatio="xMidYMid meet">
<metadata>
Created by potrace 1.14, written by Peter Selinger 2001-2017
</metadata>
<g transform="translate(0.000000,512.000000) scale(0.100000,-0.100000)"
fill="#000000" stroke="none">
<path d="M384 4904 c-174 -35 -318 -170 -365 -341 -21 -73 -20 -217 1 -268 56
-137 126 -222 222 -268 63 -31 187 -75 233 -83 17 -3 62 -11 100 -19 208 -40
328 -47 375 -19 83 48 94 113 56 344 -2 14 -9 55 -15 91 -31 189 -112 382
-187 448 -115 101 -274 145 -420 115z m176 -309 c64 -34 104 -124 136 -315 3
-19 8 -43 11 -54 5 -16 1 -18 -38 -12 -81 10 -196 39 -264 66 -123 48 -140
232 -27 302 61 37 126 42 182 13z"/>
<path d="M4580 4912 c-57 -8 -159 -48 -211 -83 -93 -62 -144 -141 -193 -296
-27 -86 -30 -102 -46 -193 -6 -30 -12 -64 -14 -75 -11 -56 -20 -148 -20 -212
-1 -58 3 -77 20 -100 32 -43 80 -67 133 -66 44 1 247 26 301 38 14 3 41 8 60
11 73 12 254 78 310 115 99 64 168 173 190 302 51 289 -158 545 -455 560 -28
2 -61 1 -75 -1z m153 -325 c68 -38 100 -122 78 -205 -15 -53 -57 -89 -137
-116 -75 -25 -250 -63 -258 -55 -7 7 28 175 53 254 24 76 43 105 81 125 61 33
119 31 183 -3z"/>
<path d="M2517 4815 c-95 -33 -107 -66 -107 -295 0 -137 -3 -180 -12 -181
-257 -18 -565 -107 -798 -231 -484 -257 -834 -671 -1010 -1196 l-29 -86 -78
-26 c-177 -59 -297 -173 -363 -345 -34 -86 -34 -262 -2 -354 64 -178 222 -321
399 -362 48 -11 52 -14 58 -48 11 -59 82 -240 136 -346 329 -647 979 -1084
1684 -1132 155 -10 418 -4 444 11 3 2 31 7 61 10 84 10 303 69 410 111 349
138 670 379 891 670 131 173 251 397 319 596 l38 113 79 25 c120 40 208 101
277 191 204 268 127 646 -166 813 -39 23 -153 69 -165 67 -21 -2 -33 2 -33 13
0 7 -11 46 -24 87 -185 578 -656 1074 -1221 1286 -123 46 -259 85 -345 100
-14 2 -34 6 -46 9 -23 5 -145 21 -186 24 -16 1 -18 17 -18 181 0 193 -6 226
-51 266 -21 19 -38 27 -89 39 -8 2 -32 -2 -53 -10z m218 -779 c140 -13 281
-45 425 -98 411 -149 768 -460 964 -838 68 -133 119 -264 147 -377 38 -156 74
-194 183 -198 88 -3 142 -21 187 -62 115 -104 116 -273 3 -373 -52 -45 -89
-59 -177 -64 -122 -7 -152 -35 -188 -173 -35 -134 -68 -224 -134 -358 -228
-468 -656 -811 -1170 -939 -98 -24 -129 -29 -270 -44 -108 -12 -271 -6 -415
14 -90 12 -297 68 -355 94 -11 5 -54 24 -95 42 -415 181 -757 538 -930 973
-31 78 -80 243 -80 270 0 24 -42 82 -74 101 -18 10 -57 18 -104 20 -120 6
-194 53 -239 151 -44 96 -20 209 59 282 45 42 96 61 178 65 119 6 160 39 185
150 72 316 235 607 474 847 302 301 690 484 1096 515 44 4 81 7 83 9 4 4 167
-2 247 -9z"/>
<path d="M1618 3287 c-60 -32 -83 -67 -83 -132 0 -72 18 -94 146 -180 57 -39
121 -82 142 -96 l37 -26 -117 -58 c-143 -71 -181 -98 -199 -141 -29 -70 -11
-132 51 -180 66 -50 90 -43 389 105 181 90 272 141 290 161 44 53 46 132 4
185 -19 25 -455 322 -523 358 -51 26 -91 27 -137 4z"/>
<path d="M3405 3302 c-11 -2 -92 -52 -180 -111 -88 -58 -164 -108 -170 -110
-5 -2 -12 -7 -15 -10 -3 -3 -44 -32 -93 -64 -48 -33 -96 -70 -107 -84 -41 -53
-35 -146 13 -191 34 -32 515 -272 564 -281 107 -21 196 82 164 189 -15 52 -50
79 -197 151 -69 34 -121 65 -117 69 4 3 67 45 139 93 73 47 141 98 153 113 82
104 -22 264 -154 236z"/>
<path d="M2450 2178 c-156 -21 -295 -73 -415 -153 -200 -133 -344 -342 -402
-583 -9 -40 -16 -114 -17 -182 -1 -99 2 -121 21 -160 29 -62 87 -118 153 -148
l55 -26 715 0 715 0 55 26 c67 31 117 79 150 144 23 44 25 60 24 164 -2 184
-50 339 -153 496 -152 231 -393 383 -666 420 -68 9 -177 10 -235 2z m267 -313
c185 -46 360 -193 437 -368 37 -84 70 -265 49 -268 -4 -1 -117 -2 -250 -3
l-243 -1 0 98 c0 137 -28 192 -110 215 -62 16 -123 -6 -164 -61 -18 -24 -21
-45 -24 -140 l-4 -112 -250 0 -250 0 6 66 c26 297 243 531 541 583 87 15 173
12 262 -9z"/>
<path d="M287 3542 c-15 -2 -45 -20 -66 -40 -48 -45 -61 -97 -40 -156 33 -94
148 -130 225 -71 129 99 45 288 -119 267z"/>
<path d="M4762 3541 c-40 -10 -91 -59 -103 -100 -42 -140 118 -252 231 -162
43 34 66 93 56 144 -15 81 -103 137 -184 118z"/>
<path d="M602 902 c-38 -6 -99 -72 -108 -117 -16 -88 52 -176 139 -178 51 -1
99 24 131 66 29 39 29 125 0 164 -37 49 -101 75 -162 65z"/>
<path d="M4498 887 c-60 -32 -83 -67 -83 -132 0 -61 21 -98 74 -129 103 -60
234 29 218 148 -14 100 -120 158 -209 113z"/>
</g>
</svg>
